<svg xmlns="http://www.w3.org/2000/svg" viewBox="0 0 64 64" role="img" aria-label="Heart and star icon">
  <defs>
    <linearGradient id="g" x1="0" y1="0" x2="1" y2="1">
      <stop offset="0%" stop-color="#ffe8b2"/>
      <stop offset="52%" stop-color="#f8a5c8"/>
      <stop offset="100%" stop-color="#c8b5ff"/>
    </linearGradient>
  </defs>
  <rect width="64" height="64" rx="18" fill="#11162a"/>
  <path d="M32 50.5 14.2 32.7a10.4 10.4 0 0 1 0-14.8c4.1-4.1 10.7-4.1 14.8 0L32 18.8l3-2.9c4.1-4.1 10.7-4.1 14.8 0a10.4 10.4 0 0 1 0 14.8L32 50.5Z" fill="url(#g)"/>
  <path d="m32 10 2.7 5.8 6.3.9-4.5 4.4 1.1 6.2L32 24.2l-5.6 3.1 1.1-6.2L23 16.7l6.3-.9L32 10Z" fill="#fff8fd" opacity="0.92"/>
</svg>
